<?xml version="1.0" encoding="UTF-8"?>
<!DOCTYPE svg PUBLIC "-//W3C//DTD SVG 1.1//EN" "http://www.w3.org/Graphics/SVG/1.1/DTD/svg11.dtd">
<!-- Creator: CorelDRAW 2019 (64-Bit) -->
<svg xmlns="http://www.w3.org/2000/svg" xml:space="preserve" width="80.4334mm" height="80.4334mm" version="1.1" style="shape-rendering:geometricPrecision; text-rendering:geometricPrecision; image-rendering:optimizeQuality; fill-rule:evenodd; clip-rule:evenodd"
viewBox="0 0 10839.24 10839.24"
 xmlns:xlink="http://www.w3.org/1999/xlink"
 xmlns:xodm="http://www.corel.com/coreldraw/odm/2003">
 <defs>
  <style type="text/css">
   <![CDATA[
    .fil1 {fill:#FEFEFE}
    .fil0 {fill:#EB851A}
   ]]>
  </style>
 </defs>
 <g id="Layer_x0020_1">
  <metadata id="CorelCorpID_0Corel-Layer"/>
  <circle class="fil0" cx="5419.62" cy="5419.62" r="5419.62"/>
  <g id="_1155535314864">
   <g>
    <g>
     <path class="fil1" d="M7649 2707.67c0,-325.11 -266.42,-589.78 -593.96,-589.78 -88.94,0 -175.73,20.16 -257.81,59.93l-0.4 0.27c-902.28,439.84 -2182.07,1177.15 -3311.12,1827.65 -589.78,339.91 -1146.8,660.72 -1570.12,892.87 -200.19,109.63 -319.76,304.44 -319.76,521.01 0,216.57 119.57,411.37 319.76,521 424.27,232.42 982.62,554.04 1573.75,894.76 1127.84,649.69 2406.16,1386.19 3307.36,1825.51 82.1,40.04 169.02,60.47 258.35,60.47 327.55,0 593.96,-264.67 593.96,-590.05l-0.28 -2711.95 0.28 -2711.68z"/>
    </g>
   </g>
   <g>
   </g>
   <g>
   </g>
   <g>
   </g>
   <g>
   </g>
   <g>
   </g>
   <g>
   </g>
   <g>
   </g>
   <g>
   </g>
   <g>
   </g>
   <g>
   </g>
   <g>
   </g>
   <g>
   </g>
   <g>
   </g>
   <g>
   </g>
   <g>
   </g>
  </g>
 </g>
</svg>
