<?xml version="1.0" encoding="UTF-8"?>
<!DOCTYPE svg PUBLIC "-//W3C//DTD SVG 1.1//EN" "http://www.w3.org/Graphics/SVG/1.1/DTD/svg11.dtd">
<!-- Creator: CorelDRAW 2019 (64-Bit) -->
<svg xmlns="http://www.w3.org/2000/svg" xml:space="preserve" width="282.54mm" height="205.274mm" version="1.1" style="shape-rendering:geometricPrecision; text-rendering:geometricPrecision; image-rendering:optimizeQuality; fill-rule:evenodd; clip-rule:evenodd"
viewBox="0 0 28239.77 20517.09"
 xmlns:xlink="http://www.w3.org/1999/xlink"
 xmlns:xodm="http://www.corel.com/coreldraw/odm/2003">
 <defs>
  <style type="text/css">
   <![CDATA[
    .fil0 {fill:#E09A4E}
    .fil2 {fill:#F0B371}
    .fil1 {fill:#F0B371;fill-rule:nonzero}
   ]]>
  </style>
 </defs>
 <g id="Layer_x0020_1">
  <metadata id="CorelCorpID_0Corel-Layer"/>
  <g id="_1155532536352">
   <path class="fil0" d="M10677.11 13019.48l6051.63 0 618.33 -3711.37 -7288.26 0 618.31 3711.37zm6731.93 432.02c-29.73,178.86 -184.48,310.24 -365.89,310.24l-6680.46 0c-181.4,0 -336.17,-131.38 -365.89,-310.24l-742.27 -4453.64 -319.68 -1916.57 -1541.25 0c-204.97,0 -371.13,-166.19 -371.13,-371.13 0,-204.95 166.19,-371.13 371.13,-371.13l1855.68 0c181.4,0 336.16,131.38 365.89,310.24l319.68 1916.57 7850.57 0c109.09,0 212.57,48.03 283.07,131.2 70.5,83.18 100.76,193.18 82.82,300.82l-742.28 4453.64zm-1108.15 3279.34c-614.88,0 -1113.42,-498.53 -1113.42,-1113.41 0,-614.88 498.54,-1113.42 1113.42,-1113.42 614.88,0 1113.41,498.54 1113.41,1113.42 0,614.88 -498.53,1113.41 -1113.41,1113.41zm-5195.92 0c-614.87,0 -1113.41,-498.53 -1113.41,-1113.41 0,-614.88 498.54,-1113.42 1113.41,-1113.42 614.88,0 1113.42,498.54 1113.42,1113.42 0,614.88 -498.54,1113.41 -1113.42,1113.41zm371.14 -1113.41c0,204.96 -166.19,371.13 -371.14,371.13 -204.95,0 -371.13,-166.19 -371.13,-371.13 0,-204.96 166.19,-371.13 371.13,-371.13 204.96,0 371.14,166.18 371.14,371.13zm5195.91 0c0,204.96 -166.19,371.13 -371.13,371.13 -204.96,0 -371.13,-166.19 -371.13,-371.13 0,-204.96 166.18,-371.13 371.13,-371.13 204.95,0 371.13,166.18 371.13,371.13z"/>
   <path class="fil0" d="M14542.93 17650.77c-275.29,-56.46 -554.12,-59.97 -781.79,-45.86 -227.66,14.11 -404.12,45.86 -601.78,123.52 -197.66,77.65 -416.49,201.17 -580.64,351.17 -164.12,150.02 -273.51,326.49 -368.83,504.72 -95.28,178.26 -176.48,358.29 -144.71,472.98 31.76,114.71 176.48,164.15 296.48,152.92 120.01,-11.19 215.32,-82.98 344.13,-180.06 128.83,-97.06 291.2,-219.37 488.74,-330.21 197.54,-110.81 430.24,-210.17 677.31,-226.07 247.09,-15.85 508.49,51.7 750.39,110.2 241.89,58.49 464.24,107.92 660.12,97.32 195.92,-10.6 365.33,-81.17 374.15,-217.06 8.83,-135.89 -142.95,-337.09 -354.72,-492.37 -211.77,-155.29 -483.55,-264.73 -758.86,-321.21z"/>
   <g>
    <path class="fil1" d="M1373.98 17518.91c-152.13,32.85 -302.12,-63.84 -334.97,-215.97 -32.85,-152.13 63.84,-302.12 215.97,-334.97 521.92,-113.58 1180.8,-219.33 1955.29,-315.11 774.03,-95.72 1669.29,-182.08 2663.97,-256.91 155.17,-11.56 290.35,104.87 301.92,260.04 11.56,155.17 -104.87,290.35 -260.04,301.92 -979.98,73.72 -1866.35,159.34 -2637.52,254.71 -758.98,93.86 -1400.85,196.66 -1904.62,306.3zm18241.61 -851.15c-155.17,-4.26 -277.52,-133.52 -273.26,-288.69 4.26,-155.17 133.52,-277.52 288.69,-273.26 1317.49,39.67 2550.76,95.88 3673.68,166.05 1150.6,71.89 2195.46,158.6 3106.57,257.34 154.57,16.43 266.56,155.06 250.12,309.63 -16.43,154.57 -155.06,266.56 -309.63,250.12 -903.22,-97.89 -1939.21,-183.86 -3080.13,-255.14 -1133.68,-70.83 -2361.42,-127.07 -3656.05,-166.05z"/>
    <path class="fil2" d="M7065.9 772.52c123.64,144.79 331.85,395.3 551.47,709.27 219.62,313.96 450.59,691.36 592.12,933.75 141.55,242.39 193.61,349.78 227.77,416.47 34.16,66.71 50.43,92.71 -55.32,74.81 -105.74,-17.88 -333.48,-79.68 -538.46,-169.16 -204.97,-89.45 -387.14,-206.61 -520.54,-362.77 -133.4,-156.17 -217.99,-351.39 -300.96,-579.14 -82.96,-227.75 -164.32,-488.04 -237.52,-719.02 -73.21,-231.01 -138.27,-432.75 -231.01,-616.55 -92.71,-183.84 -213.09,-349.76 -232.63,-419.71 -19.51,-69.94 61.85,-43.94 260.3,37.42 198.48,81.33 514.05,217.96 800.36,357.88 286.34,139.89 543.35,283.07 746.68,426.23 203.37,143.15 353.02,286.31 476.66,509.18 123.64,222.86 221.25,525.43 260.28,780.85 39.04,255.41 19.53,463.62 0,556.33 -19.52,92.74 -39.05,69.95 -226.12,-196.84 -187.07,-266.78 -541.72,-777.59 -828.02,-1133.84 -286.31,-356.25 -504.3,-557.99 -644.22,-670.22 -139.89,-112.25 -201.71,-135.02 -239.13,-146.41 -37.42,-11.39 -50.4,-11.39 -37.39,8.15 13.01,19.51 52.04,58.54 175.68,203.32z"/>
    <path class="fil2" d="M23751.06 5390.78c123.65,144.78 331.85,395.3 551.47,709.26 219.62,313.97 450.6,691.36 592.12,933.75 141.55,242.4 193.61,349.78 227.78,416.47 34.15,66.72 50.43,92.72 -55.33,74.81 -105.73,-17.88 -333.47,-79.68 -538.45,-169.15 -204.98,-89.46 -387.15,-206.61 -520.55,-362.78 -133.39,-156.17 -217.99,-351.38 -300.95,-579.13 -82.97,-227.75 -164.33,-488.04 -237.53,-719.03 -73.2,-231 -138.26,-432.74 -231,-616.55 -92.72,-183.83 -213.1,-349.75 -232.63,-419.7 -19.52,-69.94 61.84,-43.94 260.3,37.41 198.47,81.34 514.05,217.97 800.36,357.89 286.33,139.89 543.34,283.07 746.68,426.22 203.37,143.16 353.01,286.31 476.66,509.19 123.64,222.85 221.25,525.43 260.27,780.84 39.05,255.41 19.54,463.62 0,556.34 -19.51,92.74 -39.05,69.94 -226.12,-196.85 -187.07,-266.77 -541.72,-777.58 -828.02,-1133.84 -286.31,-356.25 -504.29,-557.99 -644.21,-670.21 -139.9,-112.25 -201.72,-135.03 -239.13,-146.42 -37.42,-11.38 -50.41,-11.38 -37.4,8.15 13.02,19.52 52.04,58.54 175.68,203.33z"/>
    <path class="fil2" d="M23195.74 14031.31c123.64,144.78 331.85,395.3 551.47,709.26 219.62,313.97 450.6,691.36 592.12,933.76 141.55,242.39 193.61,349.78 227.77,416.46 34.16,66.72 50.43,92.72 -55.32,74.81 -105.74,-17.88 -333.48,-79.67 -538.45,-169.15 -204.98,-89.45 -387.15,-206.61 -520.55,-362.78 -133.4,-156.16 -217.99,-351.38 -300.96,-579.13 -82.96,-227.75 -164.32,-488.04 -237.52,-719.03 -73.2,-231 -138.26,-432.74 -231,-616.55 -92.72,-183.83 -213.1,-349.75 -232.64,-419.7 -19.51,-69.94 61.85,-43.94 260.3,37.42 198.48,81.33 514.05,217.96 800.36,357.88 286.34,139.89 543.35,283.07 746.69,426.23 203.37,143.15 353.01,286.31 476.65,509.18 123.65,222.86 221.25,525.43 260.28,780.85 39.05,255.4 19.53,463.62 0,556.33 -19.51,92.74 -39.05,69.94 -226.12,-196.84 -187.07,-266.78 -541.72,-777.59 -828.02,-1133.84 -286.31,-356.25 -504.3,-557.99 -644.21,-670.22 -139.9,-112.25 -201.72,-135.02 -239.14,-146.42 -37.41,-11.38 -50.4,-11.38 -37.39,8.16 13.01,19.51 52.04,58.53 175.68,203.32z"/>
    <path class="fil2" d="M27252.46 13398c-163.22,191.13 -438.08,521.84 -728,936.32 -289.92,414.47 -594.84,912.67 -781.67,1232.66 -186.86,319.98 -255.59,461.75 -300.68,549.78 -45.1,88.07 -66.59,122.4 73.03,98.76 139.58,-23.61 440.23,-105.19 710.81,-223.32 270.59,-118.09 511.08,-272.73 687.18,-478.9 176.1,-206.16 287.77,-463.87 397.29,-764.51 109.52,-300.65 216.92,-644.28 313.56,-949.19 96.64,-304.96 182.52,-571.27 304.96,-813.92 122.4,-242.68 281.31,-461.72 307.11,-554.05 25.76,-92.33 -81.65,-58 -343.63,49.4 -262.01,107.37 -678.61,287.73 -1056.56,472.44 -377.99,184.68 -717.28,373.68 -985.71,562.67 -268.46,188.97 -466.01,377.95 -629.24,672.18 -163.22,294.19 -292.07,693.63 -343.59,1030.8 -51.54,337.17 -25.79,612.02 0,734.42 25.76,122.44 51.54,92.34 298.5,-259.86 246.95,-352.16 715.12,-1026.49 1093.08,-1496.79 377.95,-470.29 665.72,-736.61 850.43,-884.76 184.67,-148.2 266.29,-178.25 315.68,-193.28 49.4,-15.03 66.55,-15.03 49.37,10.75 -17.19,25.76 -68.71,77.28 -231.92,268.4z"/>
    <path class="fil2" d="M729.2 15107.6c76.07,89.08 204.18,243.22 339.3,436.39 135.13,193.17 277.24,425.37 364.32,574.5 87.09,149.13 119.12,215.21 140.14,256.24 21.02,41.05 31.03,57.05 -34.04,46.03 -65.05,-10.99 -205.18,-49.02 -331.28,-104.08 -126.12,-55.04 -238.2,-127.12 -320.28,-223.2 -82.08,-96.09 -134.12,-216.2 -185.17,-356.32 -51.04,-140.13 -101.1,-300.28 -146.14,-442.4 -45.05,-142.13 -85.08,-266.25 -142.14,-379.34 -57.04,-113.1 -131.11,-215.19 -143.13,-258.23 -12,-43.04 38.05,-27.04 160.15,23.03 122.12,50.03 316.28,134.1 492.43,220.19 176.17,86.07 334.3,174.16 459.42,262.24 125.12,88.08 217.19,176.15 293.26,313.28 76.07,137.12 136.13,323.29 160.14,480.43 24.03,157.15 12.02,285.25 0,342.3 -12,57.06 -24.03,43.04 -139.12,-121.11 -115.09,-164.14 -333.29,-478.43 -509.45,-697.62 -176.15,-219.19 -310.27,-343.31 -396.36,-412.36 -86.07,-69.07 -124.11,-83.08 -147.13,-90.08 -23.03,-7.01 -31.01,-7.01 -23.01,5.02 8.01,12 32.01,36.01 108.09,125.1z"/>
    <path class="fil2" d="M3225.16 14717.95c-100.42,117.59 -269.53,321.07 -447.91,576.08 -178.38,255.01 -365.99,561.54 -480.94,758.42 -114.96,196.87 -157.25,284.1 -185,338.26 -27.75,54.18 -40.96,75.31 44.94,60.76 85.88,-14.52 270.86,-64.71 437.34,-137.39 166.49,-72.66 314.45,-167.81 422.8,-294.65 108.36,-126.85 177.06,-285.41 244.45,-470.38 67.38,-184.98 133.46,-396.4 192.92,-584.01 59.46,-187.63 112.29,-351.48 187.63,-500.78 75.31,-149.3 173.08,-284.08 188.95,-340.89 15.84,-56.81 -50.23,-35.69 -211.42,30.39 -161.21,66.06 -417.52,177.03 -650.06,290.67 -232.56,113.62 -441.32,229.91 -606.47,346.19 -165.19,116.27 -286.73,232.54 -387.15,413.57 -100.42,181.01 -179.7,426.77 -211.39,634.22 -31.72,207.45 -15.87,376.56 0,451.87 15.84,75.32 31.71,56.81 183.65,-159.89 151.94,-216.67 440,-631.57 672.54,-920.93 232.54,-289.35 409.59,-453.21 523.24,-544.37 113.62,-91.17 163.84,-109.67 194.23,-118.92 30.38,-9.25 40.94,-9.25 30.36,6.63 -10.56,15.84 -42.26,47.54 -142.69,165.14z"/>
    <path class="fil2" d="M460.17 10453.94c76.07,89.09 204.18,243.22 339.3,436.39 135.12,193.17 277.24,425.38 364.32,574.51 87.09,149.13 119.12,215.2 140.14,256.24 21.01,41.04 31.02,57.04 -34.04,46.03 -65.06,-11 -205.18,-49.03 -331.29,-104.08 -126.12,-55.04 -238.2,-127.12 -320.28,-223.21 -82.07,-96.08 -134.11,-216.19 -185.16,-356.32 -51.04,-140.12 -101.11,-300.28 -146.15,-442.39 -45.04,-142.13 -85.07,-266.26 -142.13,-379.35 -57.05,-113.1 -131.11,-215.19 -143.14,-258.22 -12,-43.04 38.05,-27.04 160.16,23.02 122.11,50.04 316.27,134.1 492.43,220.19 176.17,86.08 334.3,174.16 459.41,262.25 125.13,88.08 217.2,176.15 293.27,313.28 76.07,137.11 136.12,323.29 160.14,480.43 24.02,157.14 12.01,285.25 0,342.29 -12,57.07 -24.03,43.04 -139.12,-121.11 -115.1,-164.14 -333.3,-478.42 -509.45,-697.61 -176.16,-219.19 -310.28,-343.32 -396.36,-412.36 -86.08,-69.08 -124.11,-83.08 -147.14,-90.08 -23.02,-7.01 -31.01,-7.01 -23.01,5.01 8.02,12.01 32.02,36.02 108.1,125.1z"/>
    <path class="fil2" d="M2956.13 10064.28c-100.43,117.6 -269.53,321.08 -447.91,576.09 -178.38,255 -366,561.54 -480.94,758.41 -114.97,196.88 -157.26,284.1 -185,338.26 -27.75,54.19 -40.97,75.31 44.93,60.77 85.89,-14.52 270.86,-64.72 437.35,-137.4 166.49,-72.65 314.45,-167.81 422.8,-294.65 108.35,-126.84 177.05,-285.4 244.44,-470.38 67.39,-184.98 133.46,-396.39 192.92,-584.01 59.46,-187.63 112.3,-351.48 187.63,-500.77 75.31,-149.31 173.09,-284.08 188.95,-340.9 15.85,-56.81 -50.23,-35.68 -211.41,30.39 -161.21,66.07 -417.53,177.04 -650.07,290.68 -232.56,113.62 -441.32,229.91 -606.47,346.19 -165.18,116.27 -286.73,232.54 -387.14,413.57 -100.43,181.01 -179.71,426.76 -211.4,634.22 -31.71,207.45 -15.87,376.55 0,451.86 15.85,75.33 31.71,56.81 183.66,-159.88 151.93,-216.68 439.99,-631.57 672.53,-920.93 232.54,-289.35 409.6,-453.21 523.25,-544.37 113.62,-91.18 163.84,-109.67 194.22,-118.92 30.39,-9.26 40.95,-9.26 30.37,6.62 -10.57,15.85 -42.27,47.55 -142.69,165.14z"/>
   </g>
   <path class="fil0" d="M12619.19 4073.04c-4362.05,0 -7898.24,3536.19 -7898.24,7898.24 0,4362.05 3536.19,7898.24 7898.24,7898.24 4362.05,0 7898.24,-3536.19 7898.24,-7898.24 -4.96,-4359.98 -3538.26,-7893.28 -7898.24,-7898.24zm0 -647.58c-4719.7,0 -8545.82,3826.12 -8545.82,8545.82 0,4719.7 3826.12,8545.82 8545.82,8545.82 4719.7,0 8545.82,-3826.12 8545.82,-8545.82 -5.37,-4717.46 -3828.36,-8540.45 -8545.82,-8545.82z"/>
  </g>
 </g>
</svg>
