<?xml version="1.0" encoding="UTF-8"?>
<!DOCTYPE svg PUBLIC "-//W3C//DTD SVG 1.1//EN" "http://www.w3.org/Graphics/SVG/1.1/DTD/svg11.dtd">
<!-- Creator: CorelDRAW 2019 (64-Bit) -->
<svg xmlns="http://www.w3.org/2000/svg" xml:space="preserve" width="158.044mm" height="158.044mm" version="1.1" style="shape-rendering:geometricPrecision; text-rendering:geometricPrecision; image-rendering:optimizeQuality; fill-rule:evenodd; clip-rule:evenodd"
viewBox="0 0 12794.2 12794.2"
 xmlns:xlink="http://www.w3.org/1999/xlink"
 xmlns:xodm="http://www.corel.com/coreldraw/odm/2003">
 <defs>
  <style type="text/css">
   <![CDATA[
    .fil0 {fill:#EB851A}
   ]]>
  </style>
 </defs>
 <g id="Layer_x0020_1">
  <metadata id="CorelCorpID_0Corel-Layer"/>
  <g id="_1191830667456">
   <path class="fil0" d="M4762.9 7310.97l3725.32 0 380.63 -2284.68 -4486.58 0 380.63 2284.68zm0 0z"/>
   <path class="fil0" d="M6397.1 0c-3533,0 -6397.1,2864.1 -6397.1,6397.1 0,3533 2864.1,6397.1 6397.1,6397.1 3533,0 6397.1,-2864.1 6397.1,-6397.1 -4.02,-3531.32 -2865.77,-6393.08 -6397.1,-6397.1zm-1370.8 9595.65c-378.51,0 -685.41,-306.89 -685.41,-685.41 0,-378.51 306.89,-685.41 685.41,-685.41 378.51,0 685.41,306.89 685.41,685.41 0,378.51 -306.89,685.41 -685.41,685.41zm3198.55 0c-378.51,0 -685.41,-306.89 -685.41,-685.41 0,-378.51 306.89,-685.41 685.41,-685.41 378.51,0 685.41,306.89 685.41,685.41 0,378.51 -306.89,685.41 -685.41,685.41zm682.17 -2018.73c-18.3,110.1 -113.56,190.98 -225.24,190.98l-4112.42 0c-111.67,0 -206.94,-80.88 -225.24,-190.98l-456.93 -2741.62 -196.79 -1179.82 -948.78 0c-126.17,0 -228.47,-102.3 -228.47,-228.47 0,-126.17 102.3,-228.47 228.47,-228.47l1142.34 0c111.67,0 206.94,80.88 225.24,190.98l196.79 1179.82 4832.73 0c67.16,0 130.85,29.56 174.25,80.77 43.4,51.2 62.03,118.92 50.98,185.18l-456.94 2741.62zm0 0z"/>
   <path class="fil0" d="M5254.76 8910.24c0,126.17 -102.3,228.47 -228.47,228.47 -126.17,0 -228.47,-102.3 -228.47,-228.47 0,-126.17 102.3,-228.47 228.47,-228.47 126.17,0 228.47,102.3 228.47,228.47zm0 0z"/>
   <path class="fil0" d="M8453.31 8910.24c0,126.17 -102.3,228.47 -228.47,228.47 -126.17,0 -228.47,-102.3 -228.47,-228.47 0,-126.17 102.3,-228.47 228.47,-228.47 126.17,0 228.47,102.3 228.47,228.47zm0 0z"/>
  </g>
 </g>
</svg>
