<?xml version="1.0" encoding="UTF-8"?>
<!DOCTYPE svg PUBLIC "-//W3C//DTD SVG 1.1//EN" "http://www.w3.org/Graphics/SVG/1.1/DTD/svg11.dtd">
<!-- Creator: CorelDRAW 2019 (64-Bit) -->
<svg xmlns="http://www.w3.org/2000/svg" xml:space="preserve" width="47.037mm" height="47.978mm" version="1.1" style="shape-rendering:geometricPrecision; text-rendering:geometricPrecision; image-rendering:optimizeQuality; fill-rule:evenodd; clip-rule:evenodd"
viewBox="0 0 1247.87 1272.83"
 xmlns:xlink="http://www.w3.org/1999/xlink"
 xmlns:xodm="http://www.corel.com/coreldraw/odm/2003">
 <defs>
  <style type="text/css">
   <![CDATA[
    .fil0 {fill:#EB851A;fill-rule:nonzero}
   ]]>
  </style>
 </defs>
 <g id="Layer_x0020_1">
  <metadata id="CorelCorpID_0Corel-Layer"/>
  <g id="_1155533522208">
   <g id="surface1">
    <path class="fil0" d="M869.35 755.29c152.79,-215.75 101.69,-514.5 -114.06,-667.25 -215.75,-152.75 -514.5,-101.69 -667.25,114.1 -152.75,215.75 -101.69,514.46 114.1,667.22 153.99,109.03 357.59,117.42 520.01,21.5l352.92 350.8c38.1,40.12 101.5,41.72 141.62,3.61 40.11,-38.07 41.72,-101.47 3.65,-141.58 -1.2,-1.28 -2.37,-2.45 -3.65,-3.65l-347.33 -344.74zm-390.95 32.71c-170.49,0.03 -308.72,-138.08 -308.83,-308.57 -0.04,-170.49 138.08,-308.72 308.61,-308.79 170.27,-0.07 308.42,137.82 308.75,308.1 0.29,170.52 -137.75,308.97 -308.31,309.26 -0.07,0 -0.11,0 -0.22,0zm0 0z"/>
   </g>
  </g>
 </g>
</svg>
